<svg id="Component_15_11" data-name="Component 15 – 11" xmlns="http://www.w3.org/2000/svg" width="50" height="48.113" viewBox="0 0 50 48.113">
  <path id="Path_234" data-name="Path 234" d="M19.38,0A19.526,19.526,0,1,1,0,19.526,19.453,19.453,0,0,1,19.38,0Z" transform="translate(5.794 5.447)" fill="#fff"/>
  <g id="Group_23" data-name="Group 23" transform="translate(28.018 11.521) rotate(30)">
    <path id="Path_232" data-name="Path 232" d="M3.682.012,7.4,12.59.041,12.566Z" transform="translate(0 0)" fill="#ff0101"/>
    <path id="Path_233" data-name="Path 233" d="M3.682.012,7.4,12.59.041,12.566Z" transform="translate(7.445 25.156) rotate(180)" fill="#a4a4a4"/>
  </g>
  <g id="alarm-clock_1_" data-name="alarm-clock (1)">
    <path id="Path_235" data-name="Path 235" d="M151.5,17.979l.972-.979a9.422,9.422,0,0,0,0-13.254,9.253,9.253,0,0,0-13.155,0l-1.082,1.09A34.48,34.48,0,0,1,151.5,17.979Z" transform="translate(-105.201 -1)"/>
    <path id="Path_236" data-name="Path 236" d="M13.7,17.979A34.48,34.48,0,0,1,26.961,4.835l-1.082-1.09a9.253,9.253,0,0,0-13.155,0,9.422,9.422,0,0,0,0,13.254Z" transform="translate(-10 -1)"/>
  </g>
  <g id="alarm-clock_1_2" data-name="alarm-clock (1)" transform="translate(4.53 4.135)">
    <path id="Path_239" data-name="Path 239" d="M56.758,28.5a20.356,20.356,0,0,0-38.794-8.829,20.666,20.666,0,0,0,5.85,25s-3.742,3.383-3.742,5.126,1.942,2.576,3.742,1.848,3.458-4.76,3.458-4.76a20.162,20.162,0,0,0,18.2.008s2.108,4.149,3.912,4.752a2.373,2.373,0,0,0,3.3-2.34c-.114-1.74-3.761-4.618-3.761-4.618A20.586,20.586,0,0,0,56.758,28.5Zm-36.686,0a16.305,16.305,0,1,1,16.3,16.443A16.374,16.374,0,0,1,20.072,28.5Z" transform="translate(-15.994 -7.922)"/>
  </g>
</svg>
