<svg xmlns="http://www.w3.org/2000/svg" width="31.698" height="31.698" viewBox="0 0 31.698 31.698">
  <g id="settings" transform="translate(4.685 -9.926) rotate(7)">
    <g id="Group_13" data-name="Group 13" transform="translate(0 10.001)">
      <g id="Group_12" data-name="Group 12">
        <path id="Path_243" data-name="Path 243" d="M27.575,189.231c-.451-.271-.915-.544-1.378-.811a12,12,0,0,0,0-2.794c.465-.268.928-.541,1.377-.811a1.81,1.81,0,0,0,.733-2.231h0l-.987-2.383a1.81,1.81,0,0,0-2.1-1.059c-.509.127-1.029.261-1.548.4a12,12,0,0,0-1.976-1.975c.139-.518.274-1.039.4-1.548a1.81,1.81,0,0,0-1.059-2.1l-2.383-.987a1.81,1.81,0,0,0-2.231.733c-.271.451-.544.914-.811,1.378a12,12,0,0,0-2.794,0c-.269-.465-.541-.929-.811-1.377a1.81,1.81,0,0,0-2.231-.733l-2.383.987a1.81,1.81,0,0,0-1.059,2.1c.127.51.262,1.031.4,1.548a11.991,11.991,0,0,0-1.975,1.976c-.52-.139-1.04-.274-1.548-.4a1.81,1.81,0,0,0-2.1,1.059l-.987,2.383a1.81,1.81,0,0,0,.733,2.231c.451.271.914.544,1.378.811a12.006,12.006,0,0,0,0,2.794c-.464.268-.927.541-1.378.811a1.81,1.81,0,0,0-.733,2.231l.987,2.383a1.81,1.81,0,0,0,2.1,1.059c.508-.127,1.029-.261,1.547-.4a12.007,12.007,0,0,0,1.976,1.975c-.139.519-.274,1.039-.4,1.548a1.81,1.81,0,0,0,1.059,2.1l2.383.987a1.781,1.781,0,0,0,.682.135,1.81,1.81,0,0,0,1.549-.868c.269-.447.541-.91.811-1.378a12.021,12.021,0,0,0,2.794,0c.267.462.539.925.811,1.377a1.81,1.81,0,0,0,2.231.733l2.383-.987a1.81,1.81,0,0,0,1.059-2.1c-.126-.506-.261-1.026-.4-1.548a12.005,12.005,0,0,0,1.975-1.976c.518.139,1.038.274,1.548.4a1.81,1.81,0,0,0,2.1-1.059l.987-2.383A1.81,1.81,0,0,0,27.575,189.231Zm-1.99,3.782c-.489-.123-.988-.252-1.484-.386a1.8,1.8,0,0,0-1.888.629,10.076,10.076,0,0,1-1.758,1.759,1.8,1.8,0,0,0-.628,1.887c.134.5.264,1,.386,1.484l-2.19.907c-.261-.435-.521-.879-.776-1.322a1.8,1.8,0,0,0-1.779-.89,10.087,10.087,0,0,1-2.487,0,1.8,1.8,0,0,0-1.78.89c-.258.448-.519.893-.777,1.323l-2.19-.907c.123-.489.252-.987.386-1.484a1.8,1.8,0,0,0-.629-1.888,10.077,10.077,0,0,1-1.759-1.758,1.794,1.794,0,0,0-1.888-.628c-.5.134-1,.263-1.484.386l-.907-2.19c.433-.259.877-.52,1.322-.776a1.8,1.8,0,0,0,.89-1.779,10.088,10.088,0,0,1,0-2.487,1.8,1.8,0,0,0-.89-1.78c-.445-.256-.889-.517-1.323-.777l.907-2.19c.488.122.987.252,1.484.386a1.8,1.8,0,0,0,1.888-.629,10.075,10.075,0,0,1,1.758-1.759,1.8,1.8,0,0,0,.628-1.888c-.133-.5-.263-.994-.386-1.484l2.19-.907c.259.432.52.876.776,1.322a1.8,1.8,0,0,0,1.779.89,10.071,10.071,0,0,1,2.487,0,1.8,1.8,0,0,0,1.78-.89c.256-.445.517-.889.777-1.322l2.19.907c-.123.489-.252.988-.386,1.484a1.8,1.8,0,0,0,.629,1.888,10.079,10.079,0,0,1,1.759,1.758,1.8,1.8,0,0,0,1.888.628c.5-.134.995-.263,1.484-.386l.907,2.19c-.432.259-.876.52-1.322.776a1.8,1.8,0,0,0-.89,1.779,10.077,10.077,0,0,1,0,2.487,1.8,1.8,0,0,0,.89,1.78c.444.256.889.517,1.323.777Z" transform="translate(0 -172.801)" fill="#45535f"/>
      </g>
    </g>
    <g id="Group_15" data-name="Group 15" transform="translate(7.672 17.673)">
      <g id="Group_14" data-name="Group 14">
        <path id="Path_244" data-name="Path 244" d="M104.094,268.336h0a6.557,6.557,0,1,0-3.545,8.558A6.557,6.557,0,0,0,104.094,268.336Zm-4.28,6.782a4.628,4.628,0,1,1,2.5-6.046A4.6,4.6,0,0,1,99.814,275.118Z" transform="translate(-91.494 -264.293)" fill="#45535f"/>
      </g>
    </g>
  </g>
</svg>
