<svg xmlns="http://www.w3.org/2000/svg" width="24" height="19.467" viewBox="0 0 24 19.467">
  <path id="Path_2" data-name="Path 2" d="M45.6,21.467a13.876,13.876,0,0,0,14-14V6.8A10.838,10.838,0,0,0,62,4.267a11.068,11.068,0,0,1-2.8.8A5.188,5.188,0,0,0,61.333,2.4a12.23,12.23,0,0,1-3.067,1.2,4.762,4.762,0,0,0-3.6-1.6,5.009,5.009,0,0,0-4.933,4.933A2.6,2.6,0,0,0,49.867,8,13.785,13.785,0,0,1,39.733,2.8a5.106,5.106,0,0,0-.667,2.533A5.3,5.3,0,0,0,41.2,9.467,4.5,4.5,0,0,1,38.933,8.8h0a4.873,4.873,0,0,0,4,4.8,4.11,4.11,0,0,1-1.333.133,2.269,2.269,0,0,1-.933-.133,5.051,5.051,0,0,0,4.667,3.467A10.067,10.067,0,0,1,39.2,19.2a3.691,3.691,0,0,1-1.2-.133,12.585,12.585,0,0,0,7.6,2.4" transform="translate(-38 -2)" fill="#fff" fill-rule="evenodd"/>
</svg>
