<svg id="Component_15_8" data-name="Component 15 – 8" xmlns="http://www.w3.org/2000/svg" width="40.445" height="39.942" viewBox="0 0 40.445 39.942">
  <path id="Path_234" data-name="Path 234" d="M15.676,0A15.95,15.95,0,0,1,31.352,16.21a15.95,15.95,0,0,1-15.676,16.21A15.95,15.95,0,0,1,0,16.21,15.95,15.95,0,0,1,15.676,0Z" transform="translate(4.687 4.522)" fill="#fff"/>
  <g id="Group_23" data-name="Group 23" transform="translate(22.664 9.565) rotate(30)">
    <path id="Path_232" data-name="Path 232" d="M3,.044,6.145,10.453l-6-.088Z" transform="translate(0 0)" fill="#ff0101"/>
    <path id="Path_233" data-name="Path 233" d="M3,.044,6.145,10.453l-6-.088Z" transform="translate(6.294 20.818) rotate(180)" fill="#a4a4a4"/>
  </g>
  <g id="alarm-clock_1_" data-name="alarm-clock (1)">
    <path id="Path_235" data-name="Path 235" d="M148.969,15.1l.786-.813a7.969,7.969,0,0,0,0-11,7.351,7.351,0,0,0-10.641,0l-.875.9A28.259,28.259,0,0,1,148.969,15.1Z" transform="translate(-111.514 -1)"/>
    <path id="Path_236" data-name="Path 236" d="M12.99,15.1A28.259,28.259,0,0,1,23.72,4.183l-.875-.9a7.351,7.351,0,0,0-10.641,0,7.969,7.969,0,0,0,0,11Z" transform="translate(-10 -1)"/>
  </g>
  <g id="alarm-clock_1_2" data-name="alarm-clock (1)" transform="translate(3.664 3.433)">
    <path id="Path_239" data-name="Path 239" d="M48.968,25A16.947,16.947,0,0,0,36.111,8.343a16.33,16.33,0,0,0-18.524,9.329A17.452,17.452,0,0,0,22.32,38.423s-3.027,2.808-3.027,4.256,1.571,2.138,3.027,1.534,2.8-3.952,2.8-3.952a15.937,15.937,0,0,0,14.718.006S41.54,43.712,43,44.213a1.929,1.929,0,0,0,2.672-1.943c-.093-1.444-3.042-3.834-3.042-3.834A17.259,17.259,0,0,0,48.968,25ZM19.293,25a13.426,13.426,0,0,1,13.189-13.65A13.426,13.426,0,0,1,45.671,25a13.426,13.426,0,0,1-13.189,13.65A13.441,13.441,0,0,1,19.293,25Z" transform="translate(-15.994 -7.922)"/>
  </g>
</svg>
